<?xml version="1.0" encoding="iso-8859-1"?>
<!-- Uploaded to: SVG Repo, www.svgrepo.com, Generator: SVG Repo Mixer Tools -->
<svg height="800px" width="800px" version="1.1" id="Layer_1" xmlns="http://www.w3.org/2000/svg" xmlns:xlink="http://www.w3.org/1999/xlink" 
	 viewBox="0 0 392.792 392.792" xml:space="preserve">
<path style="fill:#FFC10D;" d="M141.446,80.162c-1.099-3.943-2.715-7.822-4.719-11.378c-2.392-4.267-1.681-9.632,1.745-13.123
	l9.18-9.18l-7.37-7.37l-9.18,9.18c-3.491,3.491-8.792,4.202-13.123,1.745c-3.62-2.069-7.499-3.62-11.378-4.719
	c-4.719-1.293-8.016-5.624-8.016-10.537V21.721H88.242v12.994c0,4.978-3.297,9.18-8.016,10.537
	c-3.943,1.099-7.758,2.715-11.378,4.719c-4.267,2.392-9.632,1.681-13.123-1.745l-9.18-9.115l-7.37,7.37l9.18,9.18
	c3.491,3.491,4.202,8.792,1.745,13.123c-2.069,3.62-3.62,7.434-4.719,11.378c-1.293,4.719-5.624,8.016-10.537,8.016H21.915v10.343
	h12.994c4.978,0,9.18,3.232,10.537,8.016c1.099,3.943,2.715,7.822,4.719,11.378c2.392,4.267,1.681,9.632-1.745,13.123l-9.18,9.18
	l7.37,7.37l9.244-9.18c3.491-3.491,8.792-4.202,13.123-1.745c3.62,2.069,7.434,3.62,11.378,4.719
	c4.719,1.293,8.016,5.624,8.016,10.537v12.994h10.343v-12.994c0-4.913,3.297-9.18,8.016-10.537
	c3.943-1.099,7.822-2.715,11.378-4.719c4.267-2.457,9.632-1.681,13.123,1.745l9.18,9.18l7.37-7.37l-9.18-9.18
	c-3.491-3.491-4.202-8.792-1.745-13.123c2.069-3.62,3.62-7.434,4.719-11.378c1.293-4.719,5.624-8.016,10.537-8.016h12.994V88.178
	h-12.994C147.071,88.242,142.739,84.881,141.446,80.162z M93.479,126.772c-18.36,0-33.358-14.998-33.358-33.358
	s14.998-33.358,33.358-33.358s33.358,14.998,33.358,33.358S111.838,126.772,93.479,126.772z"/>
<g>
	<path style="fill:#194F82;" d="M93.479,59.992c-18.36,0-33.358,14.998-33.358,33.358s14.998,33.358,33.358,33.358
		s33.358-14.998,33.358-33.358S111.838,59.992,93.479,59.992z M93.479,104.986c-6.4,0-11.636-5.236-11.636-11.636
		c0-6.4,5.236-11.636,11.636-11.636c6.4,0,11.636,5.236,11.636,11.636C105.051,99.814,99.879,104.986,93.479,104.986z"/>
	<path style="fill:#194F82;" d="M175.838,66.327h-16.097c-0.065-0.259-0.259-0.517-0.323-0.776l11.378-11.378
		c4.073-3.943,4.655-10.343,0-15.451L148.04,15.968c-4.073-4.073-11.378-4.073-15.451,0l-11.378,11.378
		c-0.323-0.065-0.517-0.259-0.776-0.323V10.925C120.436,4.913,115.588,0,109.511,0H77.317c-6.012,0-10.925,4.848-10.925,10.925
		v16.162c-0.259,0.065-0.517,0.259-0.776,0.323L54.303,15.968c-2.004-2.004-4.784-3.168-7.758-3.168
		c-2.844,0-5.624,1.164-7.758,3.168l-22.756,22.82c-4.461,4.396-4.202,11.055,0,15.451L27.41,65.616
		c-0.129,0.259-0.259,0.517-0.323,0.776H10.99c-6.012,0-10.925,4.978-10.925,10.925v32.194c0,6.012,4.848,10.925,10.925,10.925
		h16.162c0.065,0.259,0.259,0.517,0.323,0.776L16.097,132.59c-4.396,4.784-3.943,11.184,0,15.451l22.82,22.82
		c4.073,4.073,11.378,4.073,15.451,0l11.378-11.378c0.323,0.065,0.517,0.259,0.776,0.323v16.097c0,6.012,4.848,10.925,10.925,10.925
		h32.129c6.012,0,10.925-4.848,10.925-10.925v-16.097c0.323-0.065,0.517-0.259,0.776-0.323l11.378,11.378
		c2.004,2.004,4.784,3.168,7.758,3.168c2.844,0,5.624-1.164,7.758-3.168l22.82-22.82c3.814-3.62,4.719-10.279,0-15.451
		l-11.378-11.378c0.129-0.259,0.259-0.517,0.323-0.776h16.097c6.012,0,10.925-4.848,10.925-10.925V77.317
		C186.828,71.305,181.851,66.327,175.838,66.327z M164.978,98.586h-12.994c-4.913,0-9.18,3.232-10.537,8.016
		c-1.099,3.943-2.715,7.822-4.719,11.378c-2.392,4.267-1.681,9.632,1.745,13.123l9.18,9.18l-7.37,7.37l-9.18-9.18
		c-3.491-3.491-8.792-4.202-13.123-1.745c-3.62,2.069-7.434,3.62-11.378,4.719c-4.719,1.293-8.016,5.624-8.016,10.537v12.994H88.242
		v-12.994c0-4.913-3.297-9.18-8.016-10.537c-3.943-1.099-7.822-2.715-11.378-4.719c-4.267-2.457-9.632-1.681-13.123,1.745
		l-9.18,9.18l-7.37-7.37l9.18-9.18c3.491-3.491,4.202-8.792,1.745-13.123c-2.069-3.62-3.62-7.434-4.719-11.378
		c-1.293-4.719-5.624-8.016-10.537-8.016H21.915V88.242h12.994c4.978,0,9.18-3.232,10.537-8.016
		c1.099-3.943,2.715-7.822,4.719-11.378c2.392-4.267,1.681-9.632-1.745-13.123l-9.115-9.18l7.37-7.37l9.18,9.18
		c3.491,3.491,8.792,4.202,13.123,1.745c3.62-2.069,7.499-3.62,11.378-4.719c4.719-1.293,8.016-5.624,8.016-10.537V21.786h10.343
		V34.78c0,4.978,3.297,9.18,8.016,10.537c3.943,1.099,7.822,2.715,11.378,4.719c4.267,2.392,9.632,1.681,13.123-1.745l9.18-9.18
		l7.37,7.37l-9.18,9.244c-3.491,3.491-4.202,8.792-1.745,13.123c2.069,3.62,3.62,7.434,4.719,11.378
		c1.293,4.719,5.624,8.016,10.537,8.016h12.994v10.343H164.978z"/>
</g>
<path style="fill:#56ACE0;" d="M260.525,304.291c-28.638,0-54.368,16.097-67.168,41.309l1.939-1.939
	c3.62-3.62,9.244-4.267,13.511-1.487c9.438,5.947,19.653,10.214,30.384,12.606c4.913,1.099,8.469,5.56,8.469,10.667v5.301h25.6
	v-5.301c0-5.107,3.556-9.503,8.469-10.667c10.731-2.392,21.01-6.659,30.384-12.606c4.331-2.715,9.956-2.069,13.511,1.487
	l2.069,2.069C315.087,320.453,289.228,304.291,260.525,304.291z"/>
<path style="fill:#FFFFFF;" d="M354.909,239.127c-2.392-10.731-6.659-21.01-12.606-30.384c-2.715-4.331-2.069-9.956,1.487-13.511
	l3.814-3.814l-18.101-18.101l-3.814,3.814c-3.62,3.62-9.18,4.267-13.511,1.487c-9.438-5.947-19.653-10.214-30.384-12.606
	c-4.913-1.099-8.469-5.56-8.469-10.667v-5.301h-25.6v5.301c0,5.107-3.556,9.503-8.469,10.667
	c-10.731,2.392-21.01,6.659-30.384,12.606c-4.331,2.715-9.956,2.069-13.511-1.487l-3.814-3.814l-18.101,18.101l3.814,3.814
	c3.62,3.62,4.267,9.18,1.487,13.511c-5.947,9.438-10.214,19.653-12.606,30.384c-1.099,4.913-5.56,8.469-10.667,8.469h-5.301v25.6
	h5.301c5.107,0,9.503,3.556,10.667,8.469c2.392,10.731,6.659,20.945,12.606,30.384c2.715,4.331,2.069,9.956-1.487,13.511
	l-3.814,3.814l3.232,3.232c16.873-30.19,48.614-49.131,83.846-49.131c35.168,0,66.909,19.006,83.846,49.131l3.232-3.232
	l-3.814-3.814c-3.62-3.62-4.267-9.18-1.487-13.511c5.947-9.438,10.214-19.653,12.606-30.384c1.099-4.913,5.56-8.469,10.667-8.469
	h5.301v-25.6h-5.301C360.469,247.661,356.073,244.105,354.909,239.127z M260.331,266.667c-21.657,0-39.24-17.648-39.24-39.24
	s17.648-39.24,39.24-39.24c21.592,0,39.24,17.648,39.24,39.24S281.923,266.667,260.331,266.667z"/>
<path style="fill:#FFC10D;" d="M260.331,209.842c-9.632,0-17.455,7.822-17.455,17.455c0,9.632,7.822,17.455,17.455,17.455
	c9.632,0,17.455-7.822,17.455-17.455C277.786,217.665,269.964,209.842,260.331,209.842z"/>
<g>
	<path style="fill:#194F82;" d="M260.331,188.057c-21.657,0-39.24,17.648-39.24,39.24s17.648,39.24,39.24,39.24
		c21.592,0,39.24-17.648,39.24-39.24S281.923,188.057,260.331,188.057z M260.331,244.881c-9.632,0-17.455-7.822-17.455-17.455
		c0-9.632,7.822-17.455,17.455-17.455c9.632,0,17.455,7.822,17.455,17.455C277.786,237.059,269.964,244.881,260.331,244.881z"/>
	<path style="fill:#194F82;" d="M381.802,225.875h-7.822c-2.263-7.37-5.172-14.352-8.792-21.204l5.56-5.56
		c4.267-4.267,4.267-11.119,0-15.451l-33.487-33.487c-4.073-4.073-11.378-4.073-15.451,0l-5.56,5.56
		c-6.788-3.62-13.834-6.594-21.204-8.792v-7.822c0-6.012-4.848-10.925-10.925-10.925h-47.386c-6.012,0-10.925,4.848-10.925,10.925
		v7.822c-7.37,2.263-14.352,5.172-21.204,8.792l-5.56-5.56c-4.267-4.267-11.119-4.267-15.451,0l-33.487,33.487
		c-4.267,4.267-4.267,11.119,0,15.451l5.56,5.56c-3.62,6.788-6.594,13.834-8.792,21.204h-7.822c-6.012,0-10.925,4.848-10.925,10.925
		v47.386c0,6.012,4.848,10.925,10.925,10.925h7.822c2.263,7.37,5.172,14.352,8.792,21.204l-5.56,5.56
		c-4.396,4.073-4.396,11.184,0,15.451l33.487,33.487c4.267,4.267,11.119,4.267,15.451,0l5.56-5.56
		c6.788,3.62,13.834,6.594,21.204,8.792v7.822c0,6.012,4.848,10.925,10.925,10.925h47.386c6.012,0,10.925-4.848,10.925-10.925
		v-7.822c7.37-2.263,14.352-5.172,21.204-8.792l5.56,5.56c4.655,4.655,11.83,3.685,15.451,0l33.487-33.487
		c4.267-4.267,4.267-11.119,0-15.451l-5.56-5.56c3.62-6.788,6.594-13.834,8.792-21.204h7.822c6.012,0,10.925-4.848,10.925-10.925
		V236.8C392.663,230.723,387.814,225.875,381.802,225.875z M370.877,273.196h-5.301c-5.107,0-9.503,3.556-10.667,8.469
		c-2.392,10.731-6.659,21.01-12.606,30.384c-2.715,4.331-2.069,9.956,1.487,13.511l3.814,3.814l-3.232,3.232
		c-16.873-30.125-48.679-49.131-83.846-49.131c-35.232,0-66.974,19.006-83.846,49.131l-3.232-3.232l3.814-3.814
		c3.62-3.62,4.267-9.244,1.487-13.511c-5.947-9.438-10.214-19.653-12.606-30.384c-1.099-4.913-5.56-8.469-10.667-8.469h-5.301v-25.6
		h5.301c5.107,0,9.503-3.556,10.667-8.469c2.392-10.731,6.659-20.945,12.606-30.384c2.715-4.331,2.069-9.956-1.487-13.511
		l-3.814-3.814l18.101-18.101l3.814,3.814c3.62,3.62,9.244,4.267,13.511,1.487c9.438-5.947,19.653-10.214,30.384-12.606
		c4.913-1.099,8.469-5.56,8.469-10.667v-5.301h25.6v5.301c0,5.107,3.556,9.503,8.469,10.667c10.731,2.392,21.01,6.659,30.384,12.606
		c4.331,2.715,9.956,2.069,13.511-1.487l3.814-3.814l18.101,18.101l-3.814,3.814c-3.62,3.62-4.267,9.18-1.487,13.511
		c5.947,9.438,10.214,19.653,12.606,30.384c1.099,4.913,5.56,8.469,10.667,8.469h5.301V273.196L370.877,273.196z M325.754,343.661
		c-3.62-3.62-9.18-4.267-13.511-1.487c-9.438,5.947-19.653,10.214-30.384,12.606c-4.913,1.099-8.469,5.56-8.469,10.667v5.301h-25.6
		v-5.301c0-5.107-3.556-9.503-8.469-10.667c-10.731-2.392-21.01-6.659-30.384-12.606c-4.331-2.715-9.956-2.069-13.511,1.487
		l-1.939,1.939c12.735-25.277,38.465-41.309,67.103-41.309s54.562,16.162,67.297,41.503L325.754,343.661z"/>
</g>
</svg>